<svg xmlns="http://www.w3.org/2000/svg" width="115.75" height="123.467" viewBox="0 0 115.75 123.467"><g fill="#001928"><path d="M115.75 28.938c0-4.657-3.32-8.554-7.717-9.451v-11.77c0-1.067-.862-1.929-1.929-1.929h-28.937v-3.859c0-1.066-.863-1.929-1.93-1.929h-34.724c-1.066 0-1.93.862-1.93 1.929v3.859h-13.504c-1.066 0-1.93.861-1.93 1.929v19.292h-13.503c-1.066 0-1.929.861-1.929 1.929v17.558c-4.398.897-7.717 4.793-7.717 9.45 0 4.656 3.319 8.553 7.717 9.449v17.559c0 1.066.862 1.93 1.929 1.93h28.938v3.857c0 1.066.863 1.93 1.93 1.93h15.434v5.941c-6.533.941-11.575 6.562-11.575 13.35 0 7.445 6.059 13.505 13.504 13.505 6.79 0 12.408-5.044 13.35-11.575h21.373c1.067 0 1.93-.862 1.93-1.93v-52.087h11.575c1.066 0 1.929-.862 1.929-1.929v-17.558c4.396-.897 7.716-4.793 7.716-9.45zm-73.309-25.08h30.867v7.717h-30.867v-7.717zm-15.432 5.788h11.574v3.858c0 1.067.863 1.929 1.93 1.929h15.434v5.788h-15.434c-1.066 0-1.93.862-1.93 1.929v3.859h-11.574v-17.363zm30.866 57.212l-10.913-10.912 10.913-10.914 10.913 10.914-10.913 10.912zm-15.434-34.062v-7.717h30.867v7.717h-30.867zm-38.583 23.15c0-3.191 2.597-5.788 5.787-5.788 3.191 0 5.788 2.597 5.788 5.788s-2.597 5.787-5.788 5.787c-3.19 0-5.787-2.595-5.787-5.787zm34.725 21.221v3.857h-27.008v-15.628c4.396-.896 7.717-4.791 7.717-9.449 0-4.659-3.32-8.554-7.717-9.451v-15.63h27.008v3.859c0 1.066.863 1.929 1.93 1.929h15.434v4.853l-12.511 12.51h-4.853v3.858h4.853l12.511 12.511v4.852h-15.434c-1.067-.001-1.93.862-1.93 1.929zm3.858 1.929h30.867v7.717h-30.867v-7.717zm15.434 40.512c-5.319 0-9.646-4.327-9.646-9.646 0-5.317 4.326-9.646 9.646-9.646s9.646 4.328 9.646 9.646c0 5.319-4.327 9.646-9.646 9.646zm32.796-11.575h-19.446c-.852-5.901-5.52-10.569-11.421-11.421v-5.941h15.434c1.066 0 1.93-.863 1.93-1.93v-11.574c0-1.067-.863-1.93-1.93-1.93h-15.434v-4.852l12.511-12.511h18.356v50.159zm-18.357-54.016l-12.511-12.51v-4.853h15.434c1.066 0 1.93-.862 1.93-1.929v-11.576c0-1.066-.863-1.929-1.93-1.929h-15.433v-5.788h15.434c1.066 0 1.93-.861 1.93-1.929v-3.857h27.008v9.841c-4.397.897-7.717 4.792-7.717 9.451s3.319 8.554 7.717 9.45v15.629h-31.862zm33.79-19.291c-3.191 0-5.788-2.599-5.788-5.788 0-3.191 2.597-5.788 5.788-5.788 3.19 0 5.787 2.597 5.787 5.788.001 3.189-2.596 5.788-5.787 5.788zM23.149 54.017h3.859v3.858h-3.859zM30.866 54.017h3.858v3.858h-3.858z"/></g></svg>