<svg xmlns="http://www.w3.org/2000/svg" width="30" height="30" viewBox="0 0 30 30"><g fill="#33BEFF"><path d="M11.345 12.542l2.328 2.328-2.327 2.327-2.328-2.328zM11.345 7.889l6.983 6.981-7.242 7.241 2.328 2.328 9.568-9.569-9.31-9.309zM15 .208c-8.169 0-14.792 6.623-14.792 14.792 0 8.171 6.623 14.792 14.792 14.792s14.792-6.621 14.792-14.792c0-8.169-6.623-14.792-14.792-14.792zm0 26.375c-6.397 0-11.583-5.186-11.583-11.583s5.186-11.583 11.583-11.583c6.396 0 11.583 5.186 11.583 11.583s-5.187 11.583-11.583 11.583z"/></g></svg>