<svg xmlns="http://www.w3.org/2000/svg" width="30" height="30" viewBox="0 0 30 30"><g fill="#131D26"><path d="M15 0c-8.271 0-15 6.729-15 15s6.729 15 15 15 15-6.729 15-15-6.729-15-15-15zm0 27.272c-6.768 0-12.272-5.504-12.272-12.272s5.504-12.272 12.272-12.272 12.272 5.504 12.272 12.272-5.504 12.272-12.272 12.272zM21.418 14.036l-5.454-5.455c-.532-.533-1.396-.533-1.928 0-.533.533-.533 1.396 0 1.928l3.126 3.127h-7.617c-.753 0-1.363.61-1.363 1.364 0 .753.61 1.363 1.363 1.363h7.617l-3.126 3.127c-.533.532-.533 1.396 0 1.929.267.266.615.398.964.398s.697-.133.964-.398l5.454-5.453c.126-.125.226-.277.295-.445.139-.333.139-.709 0-1.041-.069-.168-.169-.319-.295-.444z"/></g></svg>