<svg xmlns="http://www.w3.org/2000/svg" width="115.75" height="123.467" viewBox="0 0 115.75 123.467"><g fill="#233e56"><path d="M49.625 70.831v6.119l-21.751-9.428v-5.232l21.751-9.427v6.162l-15.156 5.839 15.156 5.967zM63.075 52.733l-6.056 24.931c-.201.82-.377 1.47-.529 1.945-.15.477-.381.85-.689 1.111-.311.269-.762.4-1.354.4-1.469 0-2.205-.636-2.205-1.901 0-.332.145-1.16.434-2.486l6.032-24.93c.317-1.326.619-2.234.907-2.725.289-.49.851-.734 1.688-.734.722 0 1.271.172 1.653.519s.573.822.573 1.427c0 .447-.153 1.262-.454 2.443zM87.875 67.522l-21.751 9.471v-6.118l15.2-5.968-15.2-5.882v-6.075l21.751 9.383v5.189zM101.875 17.733h-88c-3.313 0-6 2.688-6 6v76c0 3.313 2.688 6 6 6h88c3.314 0 6-2.688 6-6v-76c0-3.314-2.686-6-6-6zm-15 4c2.205 0 4 1.794 4 4s-1.795 4-4 4-4-1.794-4-4 1.794-4 4-4zm-11 0c2.205 0 4 1.794 4 4s-1.795 4-4 4-4-1.794-4-4 1.794-4 4-4zm26 78h-88v-66h88v66zm-4-70c-2.205 0-4-1.794-4-4s1.795-4 4-4 4 1.794 4 4-1.795 4-4 4z"/></g></svg>