<svg xmlns="http://www.w3.org/2000/svg" width="100" height="88" viewBox="0 0 100 88"><g fill="#001928"><path d="M41.751 53.098v6.119l-21.751-9.428v-5.232l21.751-9.427v6.162l-15.156 5.839 15.156 5.967zM55.2 35l-6.055 24.931c-.201.82-.377 1.47-.529 1.945-.15.477-.381.85-.689 1.111-.311.269-.762.4-1.354.4-1.469 0-2.205-.636-2.205-1.901 0-.332.145-1.16.434-2.486l6.032-24.93c.318-1.326.619-2.234.908-2.725s.85-.734 1.688-.734c.721 0 1.271.172 1.652.519.383.347.574.822.574 1.427-.001.447-.154 1.261-.456 2.443zM80 49.789l-21.751 9.471v-6.118l15.201-5.968-15.201-5.882v-6.075l21.751 9.383v5.189zM94 0h-88c-3.312 0-6 2.688-6 6v76c0 3.313 2.688 6 6 6h88c3.314 0 6-2.688 6-6v-76c0-3.314-2.685-6-6-6zm-15 4c2.205 0 4 1.794 4 4s-1.795 4-4 4-4-1.794-4-4 1.795-4 4-4zm-11 0c2.205 0 4 1.794 4 4s-1.795 4-4 4-4-1.794-4-4 1.795-4 4-4zm26 78h-88v-66h88v66zm-4-70c-2.205 0-4-1.794-4-4s1.795-4 4-4 4 1.794 4 4-1.794 4-4 4z"/></g></svg>