<svg xmlns="http://www.w3.org/2000/svg" width="235" height="156" viewBox="0 0 235 156"><path fill="#8E9297" d="M116.856 79.605l-19.401-33.605h-5.643l25.044 43.379 25.045-43.379h-5.641z"/><path fill="#737577" d="M123.682 46l-6.826 11.822-6.826-11.822h-5.642l12.468 21.597 12.47-21.597z"/><g fill="#737577"><path d="M54.065 123.064c-.911-.502-1.625-1.197-2.144-2.087-.518-.889-.777-1.884-.777-2.985 0-1.103.259-2.098.777-2.986.518-.89 1.235-1.585 2.152-2.087.917-.501 1.941-.752 3.076-.752.851 0 1.636.142 2.356.425.72.284 1.331.698 1.833 1.244l-.769.769c-.895-.905-2.024-1.357-3.387-1.357-.906 0-1.729.207-2.471.621-.742.415-1.323.982-1.743 1.702s-.63 1.527-.63 2.422.21 1.701.63 2.421c.42.721 1 1.288 1.743 1.702.742.415 1.565.622 2.471.622 1.375 0 2.503-.458 3.387-1.375l.769.77c-.502.545-1.116.963-1.841 1.252-.726.289-1.514.434-2.364.434-1.134-.002-2.157-.253-3.068-.755zM72.146 123.056c-.922-.507-1.642-1.202-2.16-2.086s-.777-1.876-.777-2.978c0-1.103.259-2.095.777-2.979s1.238-1.579 2.16-2.086c.921-.508 1.95-.761 3.084-.761 1.134 0 2.157.251 3.068.752.911.502 1.628 1.197 2.152 2.087.523.889.785 1.884.785 2.986 0 1.102-.262 2.097-.785 2.985-.524.89-1.241 1.585-2.152 2.087-.911.502-1.934.753-3.068.753-1.134.001-2.163-.253-3.084-.76zm5.539-.933c.731-.409 1.304-.976 1.718-1.701s.622-1.535.622-2.43-.207-1.705-.622-2.431c-.415-.725-.987-1.292-1.718-1.701s-1.549-.613-2.454-.613c-.906 0-1.727.204-2.463.613s-1.314.977-1.734 1.701c-.42.726-.63 1.536-.63 2.431s.21 1.704.63 2.43.998 1.292 1.734 1.701 1.557.614 2.463.614c.905 0 1.723-.205 2.454-.614zM102.392 112.265v11.454h-1.162v-9.163l-4.5 7.707h-.573l-4.5-7.658v9.114h-1.162v-11.454h.998l4.975 8.492 4.925-8.492h.999zM120.391 113.313c.829.698 1.244 1.658 1.244 2.879 0 1.223-.415 2.18-1.244 2.872-.829.693-1.975 1.039-3.436 1.039h-3.076v3.616h-1.211v-11.454h4.287c1.461 0 2.607.349 3.436 1.048zm-.868 4.982c.6-.497.9-1.197.9-2.104 0-.927-.301-1.639-.9-2.135s-1.467-.744-2.602-.744h-3.043v5.727h3.043c1.136 0 2.003-.248 2.602-.744zM137.408 120.659h-6.382l-1.374 3.06h-1.26l5.236-11.454h1.193l5.236 11.454h-1.276l-1.373-3.06zm-.441-.982l-2.75-6.152-2.748 6.152h5.498zM158.074 112.265v11.454h-.998l-7.363-9.294v9.294h-1.211v-11.454h.998l7.379 9.294v-9.294h1.195zM172.277 119.759v3.96h-1.195v-3.96l-4.581-7.494h1.292l3.928 6.431 3.927-6.431h1.211l-4.582 7.494z"/></g></svg>