<svg xmlns="http://www.w3.org/2000/svg" width="235" height="156" viewBox="0 0 235 156"><g fill="#8E9297"><path d="M52.12 125.221c0 2.332 1.9 4.232 4.233 4.232h6.585v2.352h-6.585c-3.631 0-6.585-2.953-6.585-6.584s2.954-6.586 6.585-6.586h6.585v2.352h-6.585c-2.332-.001-4.233 1.9-4.233 4.234zM76.24 129.473v2.352h-6.68c-.658 0-1.279-.15-1.844-.434-.827-.414-1.505-1.09-1.899-1.918-.282-.564-.433-1.186-.433-1.844v-8.975h2.352v9.199c.112.828.771 1.486 1.599 1.6l6.905.02zM78.687 131.805v-13.17h2.352v13.17h-2.352zM85.836 122.191v1.223h8.466v2.352h-8.466v2.484c0 .658.545 1.203 1.204 1.203h9.613v2.352h-9.613c-1.957 0-3.537-1.6-3.537-3.555v-6.059c0-1.957 1.58-3.557 3.537-3.557h9.613v2.352h-9.613c-.659 0-1.204.547-1.204 1.205zM112.27 118.654v13.17l-2.352-1.807-8.467-6.527v8.334h-2.351v-13.133l2.352 1.807 8.467 6.529v-8.393l2.351.02zM127.866 118.654v2.352h-5.399v10.818h-2.352v-10.818h-5.399v-2.352h13.15zM141.188 129.473v2.352h-6.68c-.658 0-1.279-.15-1.844-.434-.827-.414-1.505-1.09-1.9-1.918-.282-.564-.433-1.186-.433-1.844v-8.975h2.352v9.199c.113.828.771 1.486 1.6 1.6l6.905.02zM154.903 125.221c0 3.631-2.954 6.584-6.585 6.584s-6.585-2.953-6.585-6.584 2.954-6.586 6.585-6.586 6.585 2.955 6.585 6.586zm-2.351 0c0-2.334-1.9-4.234-4.233-4.234s-4.233 1.9-4.233 4.234c0 2.332 1.9 4.232 4.233 4.232s4.233-1.9 4.233-4.232zM159.249 125.221c0 2.332 1.9 4.232 4.233 4.232h4.233v-2.521h-4.233v-2.352h6.585v7.225h-6.585c-3.631 0-6.585-2.953-6.585-6.584s2.954-6.586 6.585-6.586h6.585v2.352h-6.585c-2.333-.001-4.233 1.9-4.233 4.234zM185.231 125.221c0 3.631-2.954 6.584-6.585 6.584s-6.585-2.953-6.585-6.584 2.954-6.586 6.585-6.586 6.585 2.955 6.585 6.586zm-2.351 0c0-2.334-1.9-4.234-4.233-4.234s-4.233 1.9-4.233 4.234c0 2.332 1.9 4.232 4.233 4.232s4.233-1.9 4.233-4.232z"/></g><path fill="#737577" d="M96.213 63.193c0 10.069 8.202 18.271 18.271 18.271h28.423v10.151h-28.423c-15.673 0-28.422-12.748-28.422-28.422s12.749-28.422 28.422-28.422h28.423v10.15h-28.423c-10.069.001-18.271 8.202-18.271 18.272z"/><path fill="#8E9297" d="M109.563 58h-.197c-3.031.105-4.847 2.561-4.847 5.309 0 2.747 1.767 5.586 4.798 5.691h33.683v-11h-33.437z"/></svg>