<svg xmlns="http://www.w3.org/2000/svg" width="235" height="156" viewBox="0 0 235 156"><path fill="#8E9297" d="M117.427 78.326l-23.282-40.326h-6.771l30.053 52.055 30.053-52.055h-6.769z"/><path fill="#737577" d="M125.617 38l-8.19 14.187-8.191-14.187h-6.771l14.962 25.916 14.964-25.916z"/><g fill="#737577"><path d="M42.078 130.695c-1.093-.602-1.951-1.437-2.572-2.504-.622-1.066-.933-2.261-.933-3.582 0-1.323.311-2.518.933-3.584.621-1.067 1.482-1.902 2.582-2.504s2.329-.902 3.691-.902c1.021 0 1.963.17 2.827.51.864.341 1.597.838 2.199 1.492l-.923.923c-1.073-1.087-2.429-1.629-4.064-1.629-1.087 0-2.075.248-2.965.745-.891.498-1.587 1.179-2.091 2.043-.504.863-.756 1.832-.756 2.906 0 1.073.252 2.041.756 2.904.504.865 1.2 1.546 2.091 2.043.89.498 1.878.746 2.965.746 1.649 0 3.004-.549 4.064-1.649l.923.923c-.603.654-1.339 1.156-2.209 1.503s-1.816.521-2.837.521c-1.361 0-2.589-.302-3.681-.905zM63.775 130.686c-1.106-.608-1.971-1.443-2.593-2.504-.621-1.061-.932-2.251-.932-3.572 0-1.323.311-2.514.932-3.574.622-1.061 1.486-1.896 2.593-2.504 1.105-.609 2.339-.912 3.701-.912 1.361 0 2.588.301 3.682.902 1.093.602 1.953 1.437 2.582 2.504.628 1.066.942 2.261.942 3.584 0 1.321-.314 2.516-.942 3.582-.629 1.067-1.489 1.902-2.582 2.504-1.094.603-2.32.904-3.682.904s-2.596-.305-3.701-.914zm6.645-1.12c.878-.491 1.564-1.171 2.063-2.042.497-.87.746-1.842.746-2.915 0-1.074-.249-2.047-.746-2.917-.498-.87-1.185-1.551-2.063-2.042-.877-.49-1.858-.735-2.944-.735-1.087 0-2.072.245-2.956.735-.883.491-1.577 1.172-2.081 2.042s-.756 1.843-.756 2.917c0 1.073.252 2.045.756 2.915.504.871 1.198 1.551 2.081 2.042.884.49 1.869.736 2.956.736 1.086.001 2.067-.245 2.944-.736zM100.07 117.736v13.744h-1.395v-10.995l-5.399 9.248h-.688l-5.399-9.189v10.937h-1.395v-13.744h1.198l5.969 10.19 5.91-10.19h1.199zM121.668 118.993c.994.838 1.492 1.99 1.492 3.455 0 1.467-.498 2.615-1.492 3.446-.994.832-2.369 1.247-4.124 1.247h-3.691v4.339h-1.453v-13.744h5.145c1.754 0 3.129.419 4.123 1.257zm-1.041 5.98c.721-.597 1.08-1.438 1.08-2.524 0-1.112-.359-1.967-1.08-2.562-.719-.596-1.76-.894-3.122-.894h-3.652v6.872h3.652c1.362 0 2.403-.298 3.122-.892zM142.09 127.81h-7.658l-1.65 3.671h-1.512l6.285-13.744h1.432l6.283 13.744h-1.531l-1.649-3.671zm-.531-1.179l-3.299-7.383-3.299 7.383h6.598zM166.889 117.736v13.744h-1.197l-8.836-11.152v11.152h-1.453v-13.744h1.197l8.854 11.152v-11.152h1.435zM183.932 126.729v4.752h-1.434v-4.752l-5.498-8.993h1.551l4.713 7.717 4.713-7.717h1.453l-5.498 8.993z"/></g></svg>