<svg xmlns="http://www.w3.org/2000/svg" width="235" height="156" viewBox="0 0 235 156"><g fill="#737577"><path d="M38.961 130.623c-1.346-.74-2.401-1.768-3.167-3.082-.766-1.313-1.148-2.784-1.148-4.412 0-1.627.383-3.097 1.148-4.41.766-1.314 1.825-2.342 3.179-3.082 1.354-.742 2.868-1.112 4.545-1.112 1.257 0 2.417.21 3.48.628 1.063.42 1.966 1.031 2.708 1.838l-1.136 1.135c-1.322-1.337-2.99-2.006-5.004-2.006-1.338 0-2.555.306-3.65.919-1.097.612-1.954 1.45-2.575 2.514-.62 1.063-.931 2.257-.931 3.577 0 1.322.311 2.516.931 3.578.621 1.064 1.479 1.902 2.575 2.514 1.096.613 2.313.919 3.65.919 2.03 0 3.698-.677 5.004-2.03l1.136 1.136c-.742.807-1.648 1.423-2.72 1.85-1.072.428-2.236.641-3.493.641-1.675-.003-3.186-.373-4.532-1.115zM57.998 113.653h1.717v17.937h-1.717v-17.937zM69.311 115.732c-.241-.241-.363-.532-.363-.871 0-.322.122-.604.363-.846.242-.241.539-.362.895-.362.354 0 .652.117.895.351.241.234.362.512.362.834 0 .354-.121.653-.362.895-.242.241-.541.362-.895.362-.356 0-.653-.121-.895-.363zm.023 3.143h1.717v12.715h-1.717v-12.715zM91.744 125.765h-10.636c.097 1.321.604 2.39 1.522 3.203s2.079 1.221 3.481 1.221c.789 0 1.515-.142 2.175-.423.661-.282 1.233-.697 1.717-1.246l.967 1.112c-.564.678-1.27 1.193-2.115 1.547-.846.355-1.776.532-2.792.532-1.305 0-2.462-.277-3.469-.834-1.008-.556-1.793-1.326-2.356-2.309-.564-.982-.847-2.095-.847-3.336 0-1.24.27-2.353.81-3.336.54-.982 1.281-1.748 2.224-2.296.943-.548 2.003-.822 3.18-.822 1.176 0 2.231.274 3.166.822s1.669 1.31 2.2 2.284c.532.975.798 2.091.798 3.348l-.025.533zm-9.223-4.339c-.829.781-1.301 1.801-1.413 3.057h9.016c-.112-1.256-.584-2.275-1.413-3.057-.831-.782-1.866-1.174-3.106-1.174-1.227 0-2.253.392-3.084 1.174zM110.393 120.168c.943.927 1.414 2.277 1.414 4.049v7.373h-1.716v-7.203c0-1.322-.331-2.328-.991-3.022-.661-.692-1.604-1.039-2.828-1.039-1.37 0-2.454.407-3.252 1.221-.798.814-1.196 1.938-1.196 3.373v6.671h-1.717v-12.715h1.645v2.346c.467-.775 1.115-1.375 1.945-1.802s1.793-.641 2.889-.641c1.595-.001 2.865.463 3.807 1.389zM128.004 130.816c-.322.29-.723.513-1.197.665-.475.153-.971.229-1.486.229-1.193 0-2.111-.322-2.756-.967s-.967-1.555-.967-2.731v-7.688h-2.273v-1.45h2.273v-2.78h1.717v2.78h3.867v1.45h-3.867v7.591c0 .758.189 1.334.566 1.728.379.396.924.593 1.633.593.355 0 .697-.056 1.027-.17.33-.112.617-.272.857-.482l.606 1.232zM135.955 113.653h1.717v17.937h-1.717v-17.937zM149.18 130.877c-.984-.556-1.758-1.326-2.32-2.309-.564-.982-.846-2.095-.846-3.336 0-1.24.281-2.353.846-3.336.563-.982 1.336-1.748 2.32-2.296.982-.548 2.086-.822 3.311-.822s2.33.274 3.313.822 1.754 1.313 2.309 2.296c.555.983.834 2.096.834 3.336 0 1.241-.279 2.354-.834 3.336s-1.326 1.753-2.309 2.309c-.982.557-2.088.834-3.313.834s-2.329-.277-3.311-.834zm5.74-1.305c.717-.411 1.277-.995 1.682-1.753.4-.757.604-1.62.604-2.587s-.203-1.829-.604-2.586c-.404-.758-.965-1.342-1.682-1.753s-1.527-.616-2.43-.616-1.711.205-2.428.616c-.719.411-1.281.995-1.693 1.753-.41.757-.615 1.619-.615 2.586s.205 1.83.615 2.587c.412.758.975 1.342 1.693 1.753.717.41 1.525.616 2.428.616s1.713-.206 2.43-.616zM179.057 118.875v11.168c0 2.159-.527 3.759-1.582 4.798-1.057 1.04-2.648 1.56-4.775 1.56-1.176 0-2.291-.173-3.348-.52-1.055-.346-1.914-.825-2.574-1.438l.871-1.306c.611.549 1.357.976 2.236 1.281.877.307 1.801.459 2.768.459 1.611 0 2.795-.373 3.553-1.123.758-.749 1.137-1.914 1.137-3.494v-1.619c-.531.807-1.229 1.419-2.092 1.838-.861.419-1.816.628-2.863.628-1.193 0-2.277-.262-3.252-.785-.977-.524-1.74-1.258-2.297-2.2-.557-.943-.834-2.01-.834-3.202 0-1.193.277-2.257.834-3.191s1.318-1.659 2.285-2.176c.967-.516 2.055-.773 3.264-.773 1.078 0 2.053.218 2.924.652s1.572 1.064 2.104 1.886v-2.441h1.641zm-4.012 10.116c.74-.394 1.316-.946 1.729-1.656.412-.709.617-1.514.617-2.416s-.205-1.705-.617-2.406c-.412-.7-.982-1.248-1.717-1.644-.734-.395-1.566-.592-2.502-.592-.918 0-1.744.193-2.477.58-.734.387-1.307.935-1.717 1.644s-.617 1.516-.617 2.418.207 1.707.617 2.416c.41.71.982 1.263 1.717 1.656.732.396 1.559.593 2.477.593s1.748-.197 2.49-.593zM190.588 130.877c-.984-.556-1.758-1.326-2.32-2.309-.564-.982-.846-2.095-.846-3.336 0-1.24.281-2.353.846-3.336.563-.982 1.336-1.748 2.32-2.296.982-.548 2.086-.822 3.311-.822s2.33.274 3.313.822 1.754 1.313 2.309 2.296c.557.983.834 2.096.834 3.336 0 1.241-.277 2.354-.834 3.336-.555.982-1.326 1.753-2.309 2.309-.982.557-2.088.834-3.313.834s-2.329-.277-3.311-.834zm5.742-1.305c.715-.411 1.275-.995 1.68-1.753.402-.757.604-1.62.604-2.587s-.201-1.829-.604-2.586c-.404-.758-.965-1.342-1.68-1.753-.719-.411-1.529-.616-2.432-.616s-1.711.205-2.428.616c-.719.411-1.281.995-1.693 1.753-.41.757-.615 1.619-.615 2.586s.205 1.83.615 2.587c.412.758.975 1.342 1.693 1.753.717.41 1.525.616 2.428.616s1.713-.206 2.432-.616z"/></g><path fill="#737577" d="M91 32.583v57.417h56.818z"/><path fill="#8E9297" d="M148 90.591v-58.591h-58.188z"/></svg>