<svg xmlns="http://www.w3.org/2000/svg" width="235" height="156" viewBox="0 0 235 156"><g fill="#737577"><path d="M46.993 127.544h1.948v.472c0 1.426-.401 2.49-1.204 3.199-.794.7-2.176 1.051-4.143 1.051h-4.71c-3.518 0-5.275-1.645-5.275-4.934v-2.633c0-1.794.468-3.089 1.404-3.883.944-.803 2.515-1.204 4.709-1.204h3.684c3.54 0 5.311 1.365 5.311 4.096v.437h-1.947v-.366c0-.873-.264-1.502-.791-1.888-.527-.394-1.428-.591-2.702-.591h-4.002c-1.33 0-2.262.284-2.798.85-.527.56-.791 1.457-.791 2.692v2.289c0 1.259.348 2.148 1.04 2.668.691.519 1.77.779 3.233.779h3.329c2.47 0 3.705-.878 3.705-2.633v-.401zM56.526 127.225v-2.549c.023-1.825.555-3.124 1.593-3.895 1.039-.779 2.727-1.169 5.063-1.169h3.211c2.313 0 4.018.394 5.11 1.181 1.095.786 1.641 2.058 1.641 3.812v2.644c0 1.834-.565 3.129-1.699 3.884-1.133.756-2.805 1.134-5.017 1.134h-3.151c-2.289 0-3.99-.39-5.099-1.169-1.102-.781-1.652-2.071-1.652-3.873zm2.078-2.407v2.006c0 1.385.291 2.356.874 2.916.581.559 1.577.838 2.985.838h4.462c1.408 0 2.451-.256 3.128-.768s1.016-1.429 1.016-2.751v-2.267c0-1.211-.3-2.096-.897-2.655-.598-.559-1.656-.838-3.175-.838h-4.249c-1.527 0-2.602.272-3.223.814-.615.537-.921 1.438-.921 2.705zM81.451 119.801h1.947v1.511c.63-1.133 1.951-1.699 3.966-1.699h3.411c1.991 0 3.302.755 3.931 2.267.678-1.512 2.203-2.267 4.58-2.267h2.667c1.7 0 3.019.374 3.955 1.122.943.739 1.416 1.794 1.416 3.162v8.18h-2.077v-7.872c0-1.165-.422-1.96-1.263-2.385-.661-.346-1.748-.52-3.258-.52h-1.122c-1.605 0-2.722.315-3.352.944-.552.551-.827 1.429-.827 2.633v7.199h-2.075v-7.448c0-1.108-.189-1.888-.567-2.337-.566-.66-1.68-.991-3.34-.991h-2.113c-2.533 0-3.8 1.023-3.8 3.069v7.707h-2.078v-12.275zM118.084 121.879c.551-1.512 1.92-2.267 4.107-2.267h4.049c3.714 0 5.571 1.755 5.571 5.265v2.053c0 1.921-.445 3.289-1.334 4.108-.89.818-2.416 1.228-4.579 1.228h-3.967c-1.078 0-1.908-.134-2.49-.401-.583-.269-.992-.764-1.228-1.487v6.044h-2.077v-16.62h1.947v2.077zm.13 5.181c0 1.229.291 2.121.873 2.681.591.559 1.542.838 2.856.838h3.789c1.456 0 2.486-.24 3.093-.721.606-.479.908-1.4.908-2.762v-2.277c0-1.275-.275-2.18-.826-2.716-.551-.535-1.495-.803-2.832-.803h-4.132c-2.486 0-3.729 1.196-3.729 3.589v2.171zM152.853 126.352v-2.55c0-.96-.291-1.617-.873-1.971-.583-.354-1.708-.531-3.376-.531h-3.412c-1.274 0-2.112.134-2.514.401s-.602.729-.602 1.381v.308h-2.078v-.626c0-1.047.374-1.834 1.121-2.36.748-.527 2.07-.791 3.966-.791h3.483c2.383 0 4.04.331 4.969.991.928.653 1.393 1.818 1.393 3.494v7.979h-2.077v-1.321c-.347.676-.812 1.098-1.393 1.263-.582.166-1.479.248-2.691.248h-5.465c-1.361 0-2.345-.299-2.95-.896-.607-.606-.91-1.531-.91-2.774v-.732c0-1.156.346-1.978 1.039-2.467.692-.495 2.203-.743 4.532-.743h3.647c2.4-.003 3.797.564 4.191 1.697zm-11.332 1.913v.436c0 .701.232 1.188.696 1.464s1.22.414 2.267.414h3.528c1.872 0 3.147-.131 3.825-.391.676-.259 1.015-.734 1.015-1.428v-.519c0-.725-.311-1.22-.933-1.488-.621-.275-1.774-.413-3.459-.413h-3.399c-1.432 0-2.38.134-2.844.401-.463.269-.696.776-.696 1.524zM163.423 132.076v-12.275h1.947v2.267c.417-.897.964-1.523 1.641-1.877.685-.362 1.817-.555 3.399-.578h3.093c3.479 0 5.218 1.397 5.218 4.189v8.274h-2.078v-7.707c0-1.243-.351-2.066-1.051-2.467-.7-.402-1.845-.603-3.436-.603h-.826c-2.234 0-3.765.256-4.591.768-.826.511-1.239 1.491-1.239 2.939v7.069h-2.077zM185.526 119.801h2.337l5.96 10.907 5.324-10.907h2.243l-7.023 14.07c-.582 1.188-1.283 1.959-2.102 2.313-.811.354-2.112.531-3.906.531h-.296v-1.688h.378c1.439 0 2.424-.153 2.95-.461.527-.307.988-.889 1.382-1.746l.247-.531h-.507l-6.987-12.488z"/></g><circle fill="#737577" cx="115.901" cy="61.978" r="20.486"/><circle fill="#737577" cx="148.625" cy="63.033" r="9.534"/><path fill="#8E9297" d="M138.698 70.041c-3.319 9.389-12.271 16.117-22.798 16.117-13.355 0-24.179-10.826-24.179-24.181 0-13.354 10.823-24.18 24.179-24.18 11.06 0 20.378 7.428 23.258 17.563 2.18-2.982 5.588-5.007 9.479-5.317-4.871-13.36-17.689-22.901-32.736-22.901-19.239 0-34.835 15.596-34.835 34.835s15.595 34.836 34.834 34.836c14.277 0 26.542-8.592 31.922-20.885-3.829-.551-7.121-2.762-9.124-5.887z"/></svg>