<svg xmlns="http://www.w3.org/2000/svg" width="177.412" height="105.053" viewBox="0 0 177.412 105.053"><g fill="#33BEFF"><path d="M12.68 92.053h-12.68v13h12.68c1.699 0 3.32-1.327 3.32-3.043v-6.584c0-1.719-1.621-3.373-3.32-3.373zm1.32 9.957c0 .644-.676 1.043-1.32 1.043h-10.68v-9h10.68c.645 0 1.32.728 1.32 1.373v6.584zM27 95.426v6.584c0 1.716 1.102 3.043 2.818 3.043h12.182v-2h-12.182c-.645 0-.818-.399-.818-1.043v-1.957h13v-2h-13v-2.627c0-.646.174-1.373.818-1.373h12.182v-2h-12.182c-1.716 0-2.818 1.654-2.818 3.373zM63.39 102.886c-.017.035-.106.167-.161.167h-2.47c-.034 0-.126-.132-.144-.167l-5.778-10.833h-2.185l6.299 11.852c.322.59 1.057 1.148 1.736 1.148h2.629c.682 0 1.414-.559 1.738-1.148l6.297-11.852h-2.184l-5.777 10.833zM84 102.01v-9.957h-2v9.957c0 1.716 1.529 3.043 3.248 3.043h10.752v-2h-10.752c-.644 0-1.248-.4-1.248-1.043zM120.061 92.053h-9.374c-1.718 0-2.687 1.654-2.687 3.373v6.584c0 1.716.969 3.043 2.687 3.043h9.374c1.702 0 2.939-1.327 2.939-3.043v-6.584c0-1.719-1.237-3.373-2.939-3.373zm.939 9.957c0 .644-.295 1.043-.939 1.043h-9.374c-.646 0-.687-.399-.687-1.043v-6.584c0-.646.041-1.373.687-1.373h9.374c.645 0 .939.728.939 1.373v6.584zM140 100.053h8v1.957c0 .644-.779 1.043-1.424 1.043h-9.377c-.645 0-1.199-.399-1.199-1.043v-6.584c0-.646.555-1.373 1.199-1.373h11.801v-2h-11.801c-1.719 0-3.199 1.654-3.199 3.373v6.584c0 1.716 1.48 3.043 3.199 3.043h9.377c1.7 0 3.424-1.327 3.424-3.043v-3.957h-10v2zM174.762 92.053l-5.94 6.263-5.939-6.263h-2.651l7.768 8.329v4.671h2v-4.671l7.412-8.329zM72.021 25.18l8.394 8.394-8.394 8.394-8.394-8.394zM80.416 0l-8.393 8.393 25.181 25.181-26.114 26.114 8.394 8.394 34.508-34.508z"/></g></svg>