<svg xmlns="http://www.w3.org/2000/svg" width="468.884" height="292" viewBox="0 0 468.884 292">
    <g fill="#fff">
        <path d="M32.211 257h-32.211v35h32.211c4.507 0 7.789-3.724 7.789-8.272v-17.452c0-4.557-3.282-9.276-7.789-9.276zm1.789 26.728c0 1.706-.081 2.272-1.789 2.272h-27.211v-23h27.211c1.708 0 1.789 1.563 1.789 3.275v17.453zM69 266.275v17.452c0 4.549 4.091 8.272 8.642 8.272h31.358v-6h-31.358c-1.708 0-3.642-.566-3.642-2.272v-4.727h35v-6h-35v-6.725c0-1.712 1.934-3.275 3.642-3.275h31.358v-6h-31.358c-4.551 0-8.642 4.719-8.642 9.275zM166.633 285.637c-.046.093-.282.363-.427.363h-6.546c-.091 0-.334-.271-.381-.363l-15.318-28.637h-5.791l16.697 31.686c.854 1.564 2.801 3.314 4.603 3.314h6.968c1.805 0 3.749-1.75 4.608-3.314l16.692-31.686h-5.788l-15.317 28.637zM223 283.728v-26.728h-6v26.728c0 4.549 3.019 8.272 7.575 8.272h29.425v-6h-29.425c-1.708 0-1.575-.566-1.575-2.272zM316.856 257h-24.849c-4.554 0-8.008 4.719-8.008 9.275v17.452c0 4.549 3.454 8.272 8.008 8.272h24.849c4.512 0 9.144-3.724 9.144-8.272v-17.452c0-4.556-4.632-9.275-9.144-9.275zm4.144 26.728c0 1.706-2.436 2.272-4.144 2.272h-24.849c-1.711 0-3.008-.566-3.008-2.272v-17.452c0-1.712 1.297-3.275 3.008-3.275h24.849c1.708 0 4.144 1.563 4.144 3.275v17.452zM355 266.275v17.452c0 4.549 2.731 8.272 7.287 8.272h24.856c4.507 0 7.856-3.724 7.856-8.272v-10.727h-24v6h19v4.728c0 1.706-1.147 2.272-2.856 2.272h-24.856c-1.708 0-1.287-.566-1.287-2.272v-17.452c0-1.712-.421-3.275 1.287-3.275h32.713v-6h-32.713c-4.556-.001-7.287 4.718-7.287 9.274zM461.858 257l-15.744 16.604-15.745-16.604h-7.025l19.656 22.412v12.588h5v-12.588l20.884-22.412zM355 50.965c0-27.402-18.695-50.965-45.816-50.965h-198.184v32h72.085l62.484 71.096-65.569 69.904h-42v-107h-27v136h198.184c27.121 0 45.816-18.562 45.816-45.972v-105.063zm-29 105.063c0 10.274-6.542 16.972-16.816 16.972h-93.061l65.082-69.418-62.964-71.582h90.943c10.274 0 16.816 8.69 16.816 18.965v105.063z"/>
    </g>
</svg>
