<svg xmlns="http://www.w3.org/2000/svg" width="177.204" height="110.052" viewBox="0 0 177.204 110.052">
    <path d="M12.472 97.277h-12.472v12.774h12.472c1.7 0 3.078-1.379 3.078-3.095v-6.584c0-1.718-1.378-3.095-3.078-3.095zm1.165 9.68c0 .644-.521 1.162-1.165 1.162h-10.539v-8.928h10.539c.645 0 1.165.536 1.165 1.182v6.584zM26.515 100.373v6.584c0 1.716 1.379 3.095 3.096 3.095h12.041v-1.933h-12.042c-.645 0-1.162-.519-1.162-1.162v-2.325h13.203v-1.933h-13.203v-2.326c0-.646.518-1.182 1.162-1.182h12.041v-1.914h-12.041c-1.716 0-3.095 1.377-3.095 3.096zM63.182 108.031c-.018.035-.106.088-.161.088h-2.47c-.034 0-.126-.053-.144-.088l-5.778-10.754h-2.185l6.299 11.738c.322.591 1.057 1.036 1.736 1.036h2.629c.681 0 1.414-.445 1.738-1.036l6.297-11.738h-2.183l-5.778 10.754zM83.877 106.957v-9.68h-1.933v9.68c0 1.716 1.377 3.095 3.096 3.095h11.201v-1.933h-11.201c-.644 0-1.163-.518-1.163-1.162zM119.853 97.277h-9.374c-1.718 0-3.095 1.377-3.095 3.096v6.584c0 1.716 1.377 3.095 3.095 3.095h9.374c1.702 0 3.078-1.379 3.078-3.095v-6.584c0-1.719-1.376-3.096-3.078-3.096zm1.164 9.68c0 .644-.52 1.162-1.164 1.162h-9.374c-.646 0-1.165-.519-1.165-1.162v-6.584c0-.646.52-1.182 1.165-1.182h9.374c.645 0 1.164.536 1.164 1.182v6.584zM139.854 104.632h7.676v2.325c0 .644-.518 1.162-1.162 1.162h-9.377c-.645 0-1.164-.519-1.164-1.162v-6.584c0-.646.52-1.182 1.164-1.182h12.043v-1.914h-12.043c-1.719 0-3.097 1.377-3.097 3.096v6.584c0 1.716 1.378 3.095 3.097 3.095h9.377c1.7 0 3.076-1.379 3.076-3.095v-4.258h-9.59v1.933zM174.554 97.277l-5.94 6.264-5.939-6.264h-2.651l7.623 8.052v4.723h1.933v-4.723l7.624-8.052zM134.038 19.148c0-10.336-7.131-19.148-17.362-19.148h-74.638v12h26.786l23.572 26.725-24.736 26.275h-15.622v-40h-10v51h74.638c10.231 0 17.362-6.877 17.362-17.217v-39.635zm-11 39.635c0 3.876-2.486 6.217-6.362 6.217h-35.389l24.552-26.092-23.753-26.908h34.59c3.876 0 6.362 3.272 6.362 7.148v39.635z"/>
</svg>
