<svg xmlns="http://www.w3.org/2000/svg" width="162.182" height="101" viewBox="0 0 162.182 101"><g fill="#3C4E5B"><path d="M11.379 89h-11.379v12h11.379c1.557 0 2.621-1.516 2.621-3.087v-6.027c0-1.573-1.064-2.886-2.621-2.886zm.621 8.913c0 .589-.031 1.087-.621 1.087h-9.379v-8h9.379c.59 0 .621.295.621.886v6.027zM24 91.886v6.027c0 1.571 1.496 3.087 3.068 3.087h10.932v-2h-10.932c-.589 0-1.068-.498-1.068-1.087v-1.913h12v-2h-12v-2.114c0-.591.479-.886 1.068-.886h10.932v-2h-10.932c-1.572 0-3.068 1.313-3.068 2.886zM57.801 98.883c-.016.031-.098.117-.149.117h-2.26l-.131-.117-5.29-9.883h-1.999l5.767 10.898c.293.541.967 1.102 1.589 1.102h2.407c.623 0 1.295-.561 1.591-1.102l5.764-10.898h-1.998l-5.291 9.883zM77 97.913v-8.913h-2v8.913c0 1.571 1.238 3.087 2.811 3.087h10.189v-2h-10.189c-.59 0-.811-.498-.811-1.087zM109.68 89h-8.582c-1.573 0-3.098 1.313-3.098 2.886v6.027c0 1.571 1.525 3.087 3.098 3.087h8.582c1.559 0 2.32-1.516 2.32-3.087v-6.027c0-1.573-.762-2.886-2.32-2.886zm1.32 8.913c0 .589-.73 1.087-1.32 1.087h-8.582c-.59 0-1.098-.498-1.098-1.087v-6.027c0-.591.508-.886 1.098-.886h8.582c.59 0 1.32.295 1.32.886v6.027zM128 96h7v1.913c0 .589-.457 1.087-1.047 1.087h-8.584c-.59 0-1.369-.498-1.369-1.087v-6.027c0-.591.779-.886 1.369-.886h10.631v-2h-10.631c-1.572 0-2.369 1.313-2.369 2.886v6.027c0 1.571.797 3.087 2.369 3.087h8.584c1.557 0 3.047-1.516 3.047-3.087v-3.913h-9v2zM159.756 89l-5.438 5.733-5.437-5.733h-2.426l6.545 7.423v4.577h2v-4.577l7.182-7.423zM123 17.53c0-9.464-6.861-17.53-16.229-17.53h-68.771v11h29.556l21.566 24.45-23.11 24.55h-18.012v-37h-10v47h68.771c9.368 0 16.229-6.722 16.229-16.187v-36.283zm-10 36.283c0 3.549-2.68 6.188-6.229 6.188h-28.285l22.941-24.381-21.731-24.62h27.076c3.549 0 6.229 2.981 6.229 6.53v36.283z"/></g></svg>