<svg xmlns="http://www.w3.org/2000/svg" width="360" height="198.172" viewBox="0 0 360 198.172"><g fill="#3C4E5B"><path d="M53.976.267h9v9h-9zM66.976.267h10v9h-10zM80.976.267h9v9h-9zM93.976.267h10v9h-10zM107.976.267h9v9h-9zM120.976.267h10v9h-10zM134.976.267h9v9h-9zM147.976.267h10v9h-10zM188.976.267h9v9h-9zM228.976.267h10v9h-10zM269.976.267h9v9h-9zM39.976 13.267h10v10h-10zM53.976 13.267h9v10h-9zM66.976 13.267h10v10h-10zM80.976 13.267h9v10h-9zM107.976 13.267h9v10h-9zM120.976 13.267h10v10h-10zM134.976 13.267h9v10h-9zM215.976 13.267h9v10h-9zM242.976 13.267h9v10h-9zM255.976 13.267h10v10h-10zM269.976 13.267h9v10h-9zM282.976 13.267h10v10h-10zM296.976 13.267h9v10h-9zM309.976 13.267h10v10h-10zM-.024 27.267h10v9h-10zM13.976 27.267h9v9h-9zM26.976 27.267h10v9h-10zM39.976 27.267h10v9h-10zM53.976 27.267h9v9h-9zM66.976 27.267h10v9h-10zM80.976 27.267h9v9h-9zM93.976 27.267h10v9h-10zM120.976 27.267h10v9h-10zM134.976 27.267h9v9h-9zM188.976 27.267h9v9h-9zM201.976 27.267h10v9h-10zM215.976 27.267h9v9h-9zM228.976 27.267h10v9h-10zM242.976 27.267h9v9h-9zM255.976 27.267h10v9h-10zM269.976 27.267h9v9h-9zM282.976 27.267h10v9h-10zM296.976 27.267h9v9h-9zM309.976 27.267h10v9h-10zM323.976 27.267h9v9h-9zM336.976 27.267h10v9h-10zM-.024 40.267h10v10h-10zM13.976 40.267h9v10h-9zM26.976 40.267h10v10h-10zM39.976 40.267h10v10h-10zM53.976 40.267h9v10h-9zM66.976 40.267h10v10h-10zM80.976 40.267h9v10h-9zM93.976 40.267h10v10h-10zM120.976 40.267h10v10h-10zM147.976 40.267h10v10h-10zM174.976 40.267h10v10h-10zM188.976 40.267h9v10h-9zM201.976 40.267h10v10h-10zM215.976 40.267h9v10h-9zM228.976 40.267h10v10h-10zM242.976 40.267h9v10h-9zM255.976 40.267h10v10h-10zM269.976 40.267h9v10h-9zM282.976 40.267h10v10h-10zM296.976 40.267h9v10h-9zM309.976 40.267h10v10h-10zM323.976 40.267h9v10h-9zM336.976 40.267h10v10h-10zM349.976 40.267h10v10h-10zM-.024 54.267h10v9h-10zM13.976 54.267h9v9h-9zM26.976 54.267h10v9h-10zM39.976 54.267h10v9h-10zM53.976 54.267h9v9h-9zM66.976 54.267h10v9h-10zM80.976 54.267h9v9h-9zM93.976 54.267h10v9h-10zM161.976 54.267h9v9h-9zM174.976 54.267h10v9h-10zM188.976 54.267h9v9h-9zM201.976 54.267h10v9h-10zM215.976 54.267h9v9h-9zM228.976 54.267h10v9h-10zM242.976 54.267h9v9h-9zM255.976 54.267h10v9h-10zM269.976 54.267h9v9h-9zM282.976 54.267h10v9h-10zM296.976 54.267h9v9h-9zM309.976 54.267h10v9h-10zM323.976 54.267h9v9h-9zM39.976 67.267h10v10h-10zM53.976 67.267h9v10h-9zM66.976 67.267h10v10h-10zM80.976 67.267h9v10h-9zM93.976 67.267h10v10h-10zM107.976 67.267h9v10h-9zM161.976 67.267h9v10h-9zM174.976 67.267h10v10h-10zM188.976 67.267h9v10h-9zM201.976 67.267h10v10h-10zM215.976 67.267h9v10h-9zM228.976 67.267h10v10h-10zM242.976 67.267h9v10h-9zM255.976 67.267h10v10h-10zM269.976 67.267h9v10h-9zM282.976 67.267h10v10h-10zM296.976 67.267h9v10h-9zM323.976 67.267h9v10h-9zM39.976 81.267h10v9h-10zM53.976 81.267h9v9h-9zM66.976 81.267h10v9h-10zM80.976 81.267h9v9h-9zM93.976 81.267h10v9h-10zM161.976 81.267h9v9h-9zM188.976 81.267h9v9h-9zM201.976 81.267h10v9h-10zM215.976 81.267h9v9h-9zM228.976 81.267h10v9h-10zM242.976 81.267h9v9h-9zM255.976 81.267h10v9h-10zM269.976 81.267h9v9h-9zM282.976 81.267h10v9h-10zM296.976 81.267h9v9h-9zM309.976 81.267h10v9h-10zM53.976 94.267h9v10h-9zM66.976 94.267h10v10h-10zM80.976 94.267h9v10h-9zM147.976 94.267h10v10h-10zM161.976 94.267h9v10h-9zM174.976 94.267h10v10h-10zM188.976 94.267h9v10h-9zM201.976 94.267h10v10h-10zM215.976 94.267h9v10h-9zM228.976 94.267h10v10h-10zM242.976 94.267h9v10h-9zM255.976 94.267h10v10h-10zM269.976 94.267h9v10h-9zM282.976 94.267h10v10h-10zM296.976 94.267h9v10h-9zM66.976 108.267h10v9h-10zM80.976 108.267h9v9h-9zM93.976 108.267h10v9h-10zM147.976 108.267h10v9h-10zM161.976 108.267h9v9h-9zM174.976 108.267h10v9h-10zM188.976 108.267h9v9h-9zM201.976 108.267h10v9h-10zM215.976 108.267h9v9h-9zM242.976 108.267h9v9h-9zM269.976 108.267h9v9h-9zM282.976 108.267h10v9h-10zM93.976 121.267h10v10h-10zM107.976 121.267h9v10h-9zM161.976 121.267h9v10h-9zM174.976 121.267h10v10h-10zM188.976 121.267h9v10h-9zM201.976 121.267h10v10h-10zM80.976 134.267h9v10h-9zM93.976 134.267h10v10h-10zM107.976 134.267h9v10h-9zM120.976 134.267h10v10h-10zM174.976 134.267h10v10h-10zM188.976 134.267h9v10h-9zM201.976 134.267h10v10h-10zM269.976 134.267h9v10h-9zM282.976 134.267h10v10h-10zM296.976 134.267h9v10h-9zM309.976 134.267h10v10h-10zM93.976 148.267h10v9h-10zM107.976 148.267h9v9h-9zM120.976 148.267h10v9h-10zM174.976 148.267h10v9h-10zM188.976 148.267h9v9h-9zM215.976 148.267h9v9h-9zM282.976 148.267h10v9h-10zM296.976 148.267h9v9h-9zM309.976 148.267h10v9h-10zM323.976 148.267h9v9h-9zM93.976 161.267h10v10h-10zM107.976 161.267h9v10h-9zM188.976 161.267h9v10h-9zM282.976 161.267h10v10h-10zM296.976 161.267h9v10h-9zM309.976 161.267h10v10h-10zM93.976 175.267h10v9h-10zM336.976 175.267h10v9h-10zM93.976 188.267h10v10h-10z"/></g></svg>