<svg xmlns="http://www.w3.org/2000/svg" width="360" height="198.172" viewBox="0 0 360 198.172"><g fill="#3C4E5B"><path d="M53.916 0h9.54v9.54h-9.54zM67.399 0h9.54v9.54h-9.54zM80.876 0h9.544v9.54h-9.544zM94.355 0h9.54v9.54h-9.54zM107.836 0h9.54v9.54h-9.54zM121.312 0h9.544v9.54h-9.544zM134.792 0h9.54v9.54h-9.54zM148.271 0h9.54v9.54h-9.54zM188.712 0h9.54v9.54h-9.54zM229.147 0h9.54v9.54h-9.54zM269.584 0h9.539v9.54h-9.539z"/></g><g fill="#3C4E5B"><path d="M40.436 13.473h9.544v9.535h-9.544zM53.916 13.473h9.54v9.535h-9.54zM67.399 13.473h9.54v9.535h-9.54zM80.876 13.473h9.544v9.535h-9.544zM107.836 13.473h9.54v9.535h-9.54zM121.312 13.473h9.544v9.535h-9.544zM134.792 13.473h9.54v9.535h-9.54zM215.664 13.473h9.54v9.535h-9.54zM242.623 13.473h9.54v9.535h-9.54zM256.1 13.473h9.548v9.535h-9.548zM269.584 13.473h9.539v9.535h-9.539zM283.063 13.473h9.54v9.535h-9.54zM296.548 13.473h9.54v9.535h-9.54zM310.023 13.473h9.54v9.535h-9.54z"/></g><g fill="#3C4E5B"><path d="M0 26.948h9.544v9.536h-9.544zM13.479 26.948h9.54v9.536h-9.54zM26.96 26.948h9.54v9.536h-9.54zM40.436 26.948h9.544v9.536h-9.544zM53.916 26.948h9.54v9.536h-9.54zM67.399 26.948h9.54v9.536h-9.54zM80.876 26.948h9.544v9.536h-9.544zM94.355 26.948h9.54v9.536h-9.54zM121.312 26.948h9.544v9.536h-9.544zM134.792 26.948h9.54v9.536h-9.54zM188.712 26.948h9.54v9.536h-9.54zM202.188 26.948h9.54v9.536h-9.54zM215.664 26.948h9.54v9.536h-9.54zM229.147 26.948h9.54v9.536h-9.54zM242.623 26.948h9.54v9.536h-9.54zM256.1 26.948h9.548v9.536h-9.548zM269.584 26.948h9.539v9.536h-9.539zM283.063 26.948h9.54v9.536h-9.54zM296.548 26.948h9.54v9.536h-9.54zM310.023 26.948h9.54v9.536h-9.54zM323.5 26.948h9.539v9.536h-9.539zM336.983 26.948h9.54v9.536h-9.54z"/></g><g fill="#3C4E5B"><path d="M0 40.42h9.544v9.536h-9.544zM13.479 40.42h9.54v9.536h-9.54zM26.96 40.42h9.54v9.536h-9.54zM40.436 40.42h9.544v9.536h-9.544zM53.916 40.42h9.54v9.536h-9.54zM67.399 40.42h9.54v9.536h-9.54zM80.876 40.42h9.544v9.536h-9.544zM94.355 40.42h9.54v9.536h-9.54zM121.312 40.42h9.544v9.536h-9.544zM148.271 40.42h9.54v9.536h-9.54zM175.231 40.42h9.532v9.536h-9.532zM188.712 40.42h9.54v9.536h-9.54zM202.188 40.42h9.54v9.536h-9.54zM215.664 40.42h9.54v9.536h-9.54zM229.147 40.42h9.54v9.536h-9.54zM242.623 40.42h9.54v9.536h-9.54zM256.1 40.42h9.548v9.536h-9.548zM269.584 40.42h9.539v9.536h-9.539zM283.063 40.42h9.54v9.536h-9.54zM296.548 40.42h9.54v9.536h-9.54zM310.023 40.42h9.54v9.536h-9.54zM323.5 40.42h9.539v9.536h-9.539zM336.983 40.42h9.54v9.536h-9.54zM350.46 40.42h9.54v9.536h-9.54z"/></g><g fill="#3C4E5B"><path d="M0 53.893h9.544v9.535h-9.544zM13.479 53.893h9.54v9.535h-9.54zM26.96 53.893h9.54v9.535h-9.54zM40.436 53.893h9.544v9.535h-9.544zM53.916 53.893h9.54v9.535h-9.54zM67.399 53.893h9.54v9.535h-9.54zM80.876 53.893h9.544v9.535h-9.544zM94.355 53.893h9.54v9.535h-9.54zM161.752 53.893h9.544v9.535h-9.544zM175.231 53.893h9.532v9.535h-9.532zM188.712 53.893h9.54v9.535h-9.54zM202.188 53.893h9.54v9.535h-9.54zM215.664 53.893h9.54v9.535h-9.54zM229.147 53.893h9.54v9.535h-9.54zM242.623 53.893h9.54v9.535h-9.54zM256.1 53.893h9.548v9.535h-9.548zM269.584 53.893h9.539v9.535h-9.539zM283.063 53.893h9.54v9.535h-9.54zM296.548 53.893h9.54v9.535h-9.54zM310.023 53.893h9.54v9.535h-9.54zM323.5 53.893h9.539v9.535h-9.539z"/></g><g fill="#3C4E5B"><path d="M40.436 67.368h9.544v9.536h-9.544zM53.916 67.368h9.54v9.536h-9.54zM67.399 67.368h9.54v9.536h-9.54zM80.876 67.368h9.544v9.536h-9.544zM94.355 67.368h9.54v9.536h-9.54zM107.836 67.368h9.54v9.536h-9.54zM161.752 67.368h9.544v9.536h-9.544zM175.231 67.368h9.532v9.536h-9.532zM188.712 67.368h9.54v9.536h-9.54zM202.188 67.368h9.54v9.536h-9.54zM215.664 67.368h9.54v9.536h-9.54zM229.147 67.368h9.54v9.536h-9.54zM242.623 67.368h9.54v9.536h-9.54zM256.1 67.368h9.548v9.536h-9.548zM269.584 67.368h9.539v9.536h-9.539zM283.063 67.368h9.54v9.536h-9.54zM296.548 67.368h9.54v9.536h-9.54zM323.5 67.368h9.539v9.536h-9.539z"/></g><g fill="#3C4E5B"><path d="M40.436 80.844h9.544v9.537h-9.544zM53.916 80.844h9.54v9.537h-9.54zM67.399 80.844h9.54v9.537h-9.54zM80.876 80.844h9.544v9.537h-9.544zM94.355 80.844h9.54v9.537h-9.54zM161.752 80.844h9.544v9.537h-9.544zM188.712 80.844h9.54v9.537h-9.54zM202.188 80.844h9.54v9.537h-9.54zM215.664 80.844h9.54v9.537h-9.54zM229.147 80.844h9.54v9.537h-9.54zM242.623 80.844h9.54v9.537h-9.54zM256.1 80.844h9.548v9.537h-9.548zM269.584 80.844h9.539v9.537h-9.539zM283.063 80.844h9.54v9.537h-9.54zM296.548 80.844h9.54v9.537h-9.54zM310.023 80.844h9.54v9.537h-9.54z"/></g><g fill="#3C4E5B"><path d="M53.916 94.32h9.54v9.527h-9.54zM67.399 94.32h9.54v9.527h-9.54zM80.876 94.32h9.544v9.527h-9.544zM148.271 94.32h9.54v9.527h-9.54zM161.752 94.32h9.544v9.527h-9.544zM175.231 94.32h9.532v9.527h-9.532zM188.712 94.32h9.54v9.527h-9.54zM202.188 94.32h9.54v9.527h-9.54zM215.664 94.32h9.54v9.527h-9.54zM229.147 94.32h9.54v9.527h-9.54zM242.623 94.32h9.54v9.527h-9.54zM256.1 94.32h9.548v9.527h-9.548zM269.584 94.32h9.539v9.527h-9.539zM283.063 94.32h9.54v9.527h-9.54zM296.548 94.32h9.54v9.527h-9.54z"/></g><g fill="#3C4E5B"><path d="M67.399 107.797h9.54v9.531h-9.54zM80.876 107.797h9.544v9.531h-9.544zM94.355 107.797h9.54v9.531h-9.54zM148.271 107.797h9.54v9.531h-9.54zM161.752 107.797h9.544v9.531h-9.544zM175.231 107.797h9.532v9.531h-9.532zM188.712 107.797h9.54v9.531h-9.54zM202.188 107.797h9.54v9.531h-9.54zM215.664 107.797h9.54v9.531h-9.54zM242.623 107.797h9.54v9.531h-9.54zM269.584 107.797h9.539v9.531h-9.539zM283.063 107.797h9.54v9.531h-9.54z"/></g><g fill="#3C4E5B"><path d="M94.355 121.271h9.54v9.533h-9.54zM107.836 121.271h9.54v9.533h-9.54zM161.752 121.271h9.544v9.533h-9.544zM175.231 121.271h9.532v9.533h-9.532zM188.712 121.271h9.54v9.533h-9.54zM202.188 121.271h9.54v9.533h-9.54z"/></g><g fill="#3C4E5B"><path d="M80.876 134.74h9.544v9.539h-9.544zM94.355 134.74h9.54v9.539h-9.54zM107.836 134.74h9.54v9.539h-9.54zM121.312 134.74h9.544v9.539h-9.544zM175.231 134.74h9.532v9.539h-9.532zM188.712 134.74h9.54v9.539h-9.54zM202.188 134.74h9.54v9.539h-9.54zM269.584 134.74h9.539v9.539h-9.539zM283.063 134.74h9.54v9.539h-9.54zM296.548 134.74h9.54v9.539h-9.54zM310.023 134.74h9.54v9.539h-9.54z"/></g><g fill="#3C4E5B"><path d="M94.355 148.216h9.54v9.532h-9.54zM107.836 148.216h9.54v9.532h-9.54zM121.312 148.216h9.544v9.532h-9.544zM175.231 148.216h9.532v9.532h-9.532zM188.712 148.216h9.54v9.532h-9.54zM215.664 148.216h9.54v9.532h-9.54zM283.063 148.216h9.54v9.532h-9.54zM296.548 148.216h9.54v9.532h-9.54zM310.023 148.216h9.54v9.532h-9.54zM323.5 148.216h9.539v9.532h-9.539z"/></g><g fill="#3C4E5B"><path d="M94.355 161.691h9.54v9.533h-9.54zM107.836 161.691h9.54v9.533h-9.54zM188.712 161.691h9.54v9.533h-9.54zM283.063 161.691h9.54v9.533h-9.54zM296.548 161.691h9.54v9.533h-9.54zM310.023 161.691h9.54v9.533h-9.54z"/></g><g fill="#3C4E5B"><path d="M94.355 175.164h9.54v9.549h-9.54zM336.983 175.164h9.54v9.549h-9.54z"/></g><path fill="#3C4E5B" d="M94.355 188.641h9.54v9.531h-9.54z"/></svg>