<svg xmlns="http://www.w3.org/2000/svg" width="326.972" height="120" viewBox="0 0 326.972 120"><g fill="#CCEFFF"><path d="M156.517 50l-11.425 32h3.713l2.469-7h15.586l2.428 7h3.652l-11.425-32h-4.998zm-4.244 22l6.813-18.564 6.733 18.564h-13.546zM181.961 53h10v29h4v-29h10v-3h-24zM234.349 76.806l-10.914-26.806h-6.474v32h4v-29.259l11.654 29.259h3.549l11.797-29.259v29.259h4v-32h-6.616zM279.262 50h-4.386c-3.768 0-6.283.738-7.793 2.248-1.496 1.51-2.122 4.104-2.122 7.817v11.771c0 3.699.585 6.334 1.999 7.857 1.415 1.508 3.992 2.307 7.978 2.307h4.672c3.563 0 6.339-.791 7.849-2.328 1.509-1.551 2.503-4.32 2.503-8.265v-11.077c0-3.686-.926-6.314-2.299-7.919-1.375-1.619-4.335-2.411-8.401-2.411zm6.699 21.692c0 2.721-.47 4.685-1.381 5.704-.911 1.007-2.577 1.604-4.971 1.604h-4.917c-2.611 0-4.491-.61-5.335-1.644-.83-1.034-1.396-3.039-1.396-5.827v-11.199c0-2.829.588-4.794 1.459-5.787.883-.993 2.776-1.543 5.375-1.543h4.712c2.489 0 4.196.53 5.094 1.482.897.938 1.36 3.012 1.36 6.113v11.097zM316.159 65.51l10.037-15.51h-4.162l-8.793 13.464-8.934-13.464h-4.265l10.303 15.51-11.241 16.49h4.325l9.793-14.443 9.506 14.443h4.244zM0 120l25.137-.256 43.154-75.785 31.25 54.041h-35.887l-12.701 22h86.602v-.001l-69.301-119.999z"/></g></svg>