<svg xmlns="http://www.w3.org/2000/svg" width="323.219" height="135.619" viewBox="0 0 323.219 135.619"><g fill="#CCEFFF"><path d="M181 60.471h-19v-18h-13v48h13v-19h19v19h14v-48h-14zM231 71.471h22v-10h-22v-8h25v-11h-38v48h39v-10h-26zM305.367 65.646l16.754-23.175h-14.693l-9.477 13.869-9.611-13.869h-15.313l16.754 23.724-17.51 24.276h15.518l9.818-14.901 9.957 14.901h15.655zM0 33.906v67.809l58 33.904 58-33.904v-67.809l-58-33.906-58 33.906zm69-1.518l25 14.519v41.809l-25 14.517v-25.762h-22v25.761l-25-14.517v-41.809l25-14.519v23.083h22v-23.082z"/></g></svg>