<svg xmlns="http://www.w3.org/2000/svg" width="318.528" height="126.327" viewBox="0 0 318.528 126.327"><g fill="#CCEFFF"><path d="M146.802 64.325c0 11.818 9.614 21.5 21.432 21.5h21.505v-8h-21.505c-7.593 0-13.777-5.908-13.777-13.5 0-7.594 6.185-13.5 13.777-13.5h21.505v-8h-21.505c-11.818 0-21.432 9.681-21.432 21.5zM237.018 42.449l-21.279-.061v43.437h21.248c5.879 0 11.207-2.676 15.064-6.594.428-.43.857-1 1.225-1.43 3.184-3.734 5.129-8.644 5.129-13.909 0-11.819-9.569-21.443-21.387-21.443zm-.092 35.376h-14.188v-27h14.188c7.594 0 13.777 5.906 13.777 13.5s-6.183 13.5-13.777 13.5zM297.096 42.388c-11.818 0-21.432 9.613-21.432 21.432s9.613 21.432 21.432 21.432c11.816 0 21.432-9.613 21.432-21.432s-9.615-21.432-21.432-21.432zm0 35.209c-7.594 0-13.779-6.186-13.779-13.777 0-7.594 6.186-13.777 13.779-13.777 7.592 0 13.777 6.184 13.777 13.777.001 7.592-6.185 13.777-13.777 13.777z"/><circle cx="63.098" cy="62.57" r="18.73"/><path d="M97.215 44.825h26.131c-8.002-26-31.95-44.825-60.248-44.825-34.848 0-63.098 27.986-63.098 62.833s28.25 63.493 63.098 63.493c28.15 0 51.988-18.502 60.113-43.502h-26.225c-6.695 12-19.359 19.227-33.889 19.227-21.514 0-38.955-17.704-38.955-39.218s17.441-38.559 38.955-38.559c14.694 0 27.485 8.551 34.118 20.551z"/></g></svg>