<svg xmlns="http://www.w3.org/2000/svg" width="98.008" height="97.45" viewBox="0 0 98.008 97.45"><g fill="#131D26"><path d="M73.588 56.61c-.659-.654-1.723-.654-2.381 0l-4.777 4.777 4.17-4.187c2.965-2.999 3.261-7.728.691-11.073.412-.036.797-.223 1.081-.523 1.542-1.732 3.026-3.421 4.456-5.063.602-.714.511-1.779-.203-2.38-.713-.602-1.777-.512-2.379.202-1.407 1.665-2.87 3.354-4.389 5.063-.23.277-.367.62-.389.979-3.279-2.293-7.701-1.958-10.604.763l.426-.425c.654-.659.654-1.722 0-2.38l-10.735-10.736c-.659-.654-1.722-.654-2.38 0l-11.377 11.259c-.654.659-.654 1.722 0 2.38l10.668 10.753c.659.654 1.722.654 2.38 0l4.186-4.187-4.169 4.17c-2.843 2.847-3.281 7.305-1.046 10.65-1.283 1.165-2.549 2.33-3.815 3.377-.708.634-.769 1.722-.135 2.431.634.708 1.722.769 2.431.135 1.316-1.165 2.633-2.38 3.967-3.596 3.343 2.185 7.76 1.727 10.584-1.097l4.186-4.136-4.169 4.169c-.655.658-.655 1.722 0 2.381l10.734 10.72c.658.654 1.722.654 2.38 0l11.31-11.293c.654-.658.654-1.722 0-2.381l-10.702-10.752zm-26.856-4.17l-8.356-8.44 8.946-8.946 8.355 8.355-8.945 9.031zm10.735 13.133c-1.906 2.047-5.111 2.16-7.156.253-2.047-1.907-2.16-5.11-.254-7.157l.254-.252 10.734-10.737c1.907-2.046 5.111-2.159 7.158-.252 2.046 1.906 2.158 5.11.252 7.156l-.252.253-10.736 10.736zm14.331 11.934l-8.44-8.44 4.17-4.169 4.945-4.71 8.355 8.44-9.03 8.879zM96.325 3.469l-.161.003c-.933-.003-1.719.751-1.721 1.684l-.011.122c-.137 1.955-.66 3.864-1.526 5.621-.365.854.024 1.841.874 2.211.209.09.43.135.656.136.678-.001 1.403-.406 1.667-1.03 1.044-2.18 1.905-4.541 1.905-6.954v-.186c0-.876-.806-1.595-1.683-1.607zM78.77 35.459c.727.583 1.789.466 2.373-.262l.007-.008c1.452-1.824 2.853-3.646 4.152-5.402.468-.806.194-1.839-.612-2.308-.684-.397-1.552-.266-2.088.315-1.283 1.688-2.65 3.512-4.086 5.301-.578.725-.465 1.78.254 2.364zM89.252 24.235c1.384-2.043 2.616-4.001 3.663-5.807.5-.787.268-1.83-.519-2.331-.787-.5-1.83-.268-2.33.52l-.072.123c-.826 1.435-1.806 2.971-2.869 4.574-2.959-4.085-6.549-7.675-10.635-10.634 1.216-.811 2.414-1.57 3.545-2.263.862-.354 1.273-1.342.918-2.204-.355-.861-1.342-1.271-2.204-.917-.144.06-.279.139-.401.235-1.536.928-3.156 1.975-4.845 3.123-22.405-13.393-51.425-6.087-64.818 16.318-12.538 20.975-7.02 48.049 12.727 62.443-.211.509-.161 1.089.135 1.553.514.778 1.561.992 2.339.478l.007-.005.27-.186c22.275 13.608 51.364 6.582 64.973-15.693 9.229-15.108 9.241-34.106.032-49.227l.084-.1zm-4.123 49.605c-8.214 11.94-21.795 19.054-36.287 19.011-7.583.005-15.036-1.968-21.624-5.723l2.262-1.688c.75-.555.909-1.612.354-2.363s-1.612-.909-2.363-.354c-1.148.844-2.262 1.688-3.376 2.396-19.968-13.738-25.018-41.064-11.279-61.032 13.739-19.969 41.063-25.02 61.033-11.28 19.968 13.738 25.019 41.065 11.28 61.033zM85.826 5.295c1.857-.927 3.843-1.57 5.892-1.908.932-.111 1.597-.958 1.484-1.891-.112-.931-.957-1.596-1.891-1.484-2.4.389-4.729 1.14-6.903 2.228-.817.448-1.116 1.476-.667 2.292.406.74 1.297 1.066 2.085.763zM37.971 74.45h.017c-1.767 2-3.5 2.904-5.199 4.256-.732.576-.856 1.647-.278 2.38.578.731 1.64.86 2.372.282 1.722-1.361 3.477-2.793 5.267-4.301.713-.602.804-1.686.202-2.398-.602-.713-1.667-1.219-2.381-.219zM4.819 94.37l.05-.017c-.367-.022-.717-.165-.996-.405-.33-.447-.485-.999-.439-1.553.006-.413.045-.825.118-1.232.159-.932-.469-1.816-1.401-1.975-.933-.158-1.816.469-1.975 1.4-.108.613-.165 1.234-.169 1.857-.08 1.449.432 2.721 1.418 3.785.808.768 1.846 1.219 2.954 1.219h.221c.933 0 1.737-.498 1.798-1.43.06-.932-.647-1.589-1.579-1.649zM16.488 90.113l-.124.071.017-.034c-1.881 1.099-3.833 2.074-5.84 2.921-.871.353-1.291 1.347-.937 2.219.354.872 1.348 1.292 2.22.938 2.142-.906 4.222-1.949 6.229-3.123.826-.432 1.145-1.452.713-2.278-.432-.827-1.452-1.147-2.278-.714zM8.33 77.135c-.774-.518-1.823-.311-2.342.464l-.038.06c-1.333 2.178-2.448 4.221-3.376 6.061-.429.827-.105 1.846.722 2.275.828.429 1.846.105 2.275-.723l.041-.084c.844-1.688 1.908-3.681 3.174-5.757.489-.763.288-1.776-.456-2.296z"/></g></svg>