<svg xmlns="http://www.w3.org/2000/svg" xmlns:xlink="http://www.w3.org/1999/xlink" version="1.1" x="0px" y="0px" viewBox="0 0 512 640" style="enable-background:new 0 0 512 512;" xml:space="preserve"><g><g><g><path d="M262.477,480.699c-5.282,0-9.696-4.138-9.978-9.475c-0.29-5.515,3.945-10.222,9.461-10.512     c78.467-4.13,147.229-52.635,177.754-124.507C431.366,330.836,426,321.494,426,311c0-16.03,12.638-29.164,28.474-29.962     C455.487,272.727,456,264.341,456,256c0-113.038-91.963-205-205-205c-28.079,0-55.283,5.571-80.856,16.56     c-5.076,2.179-10.956-0.166-13.136-5.24s0.166-10.956,5.24-13.136C190.331,37.118,220.191,31,251,31     c60.1,0,116.603,23.404,159.099,65.901C452.596,139.398,476,195.9,476,256c0,12.668-1.077,25.432-3.202,37.938     c-0.498,2.936-2.279,5.496-4.857,6.984c-2.579,1.489-5.688,1.752-8.478,0.717C458.319,301.215,457.154,301,456,301     c-5.514,0-10,4.486-10,10c0,4.889,3.499,9.025,8.321,9.838c2.938,0.495,5.502,2.274,6.994,4.854     c1.491,2.579,1.756,5.688,0.721,8.482c-31.232,84.282-109.354,141.791-199.025,146.512     C262.832,480.694,262.653,480.699,262.477,480.699z M212.721,477.603c-0.587,0-1.183-0.052-1.781-0.16     c-51.264-9.216-98.107-36.325-131.902-76.336C44.836,360.614,26,309.081,26,256c0-36.216,8.344-70.8,24.801-102.791     c15.695-30.509,38.588-57.473,66.204-77.976c4.434-3.291,10.698-2.365,13.99,2.068c3.292,4.434,2.366,10.698-2.068,13.99     C77,129.843,46,191.417,46,256c0,99.356,70.855,184.208,168.479,201.759c5.436,0.977,9.05,6.176,8.073,11.611     C221.682,474.207,217.468,477.603,212.721,477.603z"/></g><g><path d="M306,441c-9.971,0-18.996-4.849-24.502-12.661C271.45,430.106,261.225,431,251,431c-96.495,0-175-78.505-175-175     c0-50.318,21.693-98.242,59.517-131.483c4.149-3.645,10.468-3.239,14.113,0.91c3.646,4.148,3.239,10.467-0.91,14.113     C115.216,168.985,96,211.433,96,256c0,85.468,69.533,155,155,155c11.362,0,22.726-1.245,33.772-3.699     c5.048-1.126,10.13,1.798,11.699,6.732C297.796,418.2,301.625,421,306,421c5.514,0,10-4.486,10-10     c0-1.232-0.236-2.458-0.701-3.642c-2.021-5.141,0.509-10.945,5.648-12.965c5.141-2.023,10.945,0.509,12.965,5.648     C335.298,403.567,336,407.254,336,411C336,427.542,322.542,441,306,441z M356.258,393.064c-2.874,0.001-5.726-1.231-7.704-3.617     c-3.524-4.251-2.937-10.556,1.315-14.081C385.541,345.788,406,302.28,406,256c0-72.659-51.493-136.401-122.439-151.564     c-5.297-1.132-8.729-6.275-7.743-11.6C275.94,92.172,276,91.572,276,91c0-5.514-4.486-10-10-10c-5.455,0-9.904,4.391-9.999,9.824     c0.068,2.628-0.902,5.179-2.702,7.099c-1.82,1.941-4.338,3.076-6.998,3.155c-20.239,0.602-39.821,5.05-58.202,13.22     c-5.046,2.244-10.957-0.029-13.2-5.076c-2.244-5.046,0.029-10.957,5.076-13.2c18.281-8.126,37.607-12.994,57.56-14.505     C241.514,69.608,252.771,61,266,61c15.109,0,27.646,11.229,29.704,25.779c35.417,9.356,67.417,29.908,90.793,58.471     C411.971,176.376,426,215.708,426,256c0,52.253-23.096,101.371-63.365,134.763C360.769,392.31,358.506,393.064,356.258,393.064z"/></g><g><path d="M251,431c-8.009-0.001-16.061-0.548-23.933-1.625c-5.472-0.748-9.301-5.791-8.552-11.263s5.792-9.304,11.263-8.552     c15.226,2.083,31.022,1.9,46.29-0.587C277.112,393.373,290.139,381,306,381c8.563,0,16.432,3.557,21.981,9.56     C376.326,362.94,406,312.163,406,256c0-63.836-38.312-120.366-97.603-144.016c-5.13-2.046-7.63-7.864-5.583-12.994     s7.862-7.627,12.993-5.583c32.146,12.823,59.568,34.708,79.302,63.288C415.318,185.964,426,220.303,426,256     c0,33.141-9.311,65.402-26.925,93.297c-17.132,27.132-41.339,49.037-70.003,63.35c-2.511,1.254-5.434,1.394-8.053,0.389     c-2.62-1.007-4.696-3.067-5.723-5.681c-1.516-3.86-5.165-6.354-9.297-6.354c-5.514,0-10,4.486-10,10     c0,1.029,0.158,2.049,0.471,3.032c0.852,2.675,0.538,5.584-0.861,8.018c-1.4,2.433-3.759,4.166-6.499,4.774     C276.642,429.595,263.819,431,251,431z M180.679,415.313c-1.429,0-2.881-0.308-4.26-0.958     c-29.592-13.96-54.647-35.893-72.458-63.426C85.669,322.649,76,289.824,76,256c0-45.821,17.589-89.143,49.528-121.986     c31.872-32.774,74.552-51.571,120.18-52.928c2.687-0.07,5.31,0.932,7.248,2.806c1.939,1.875,3.039,4.453,3.049,7.149     C256.027,96.533,260.511,101,266,101c4.813,0,8.942-3.433,9.817-8.163c1.004-5.431,6.214-9.021,11.652-8.014     c5.431,1.004,9.019,6.221,8.014,11.652C292.854,110.686,280.455,121,266,121c-12.81,0-23.794-8.103-28.078-19.454     C157.685,108.146,96,174.451,96,256c0,59.717,34.916,114.774,88.952,140.267c4.995,2.356,7.134,8.315,4.777,13.311     C188.024,413.193,184.429,415.313,180.679,415.313z"/></g><g><path d="M251,381c-32.443,0-63.19-12.374-86.579-34.844c-21.35-20.51-34.554-47.47-37.689-76.621     C114.711,265.622,106,254.309,106,241c0-15.984,12.565-29.088,28.336-29.955c8.858-22.913,24.522-43.041,44.727-57.282     c4.515-3.181,10.753-2.101,13.935,2.413c3.182,4.514,2.102,10.753-2.413,13.935c-18.856,13.291-33.004,32.672-39.838,54.575     c-1.599,5.125-6.96,8.071-12.146,6.678C137.694,231.119,136.843,231,136,231c-5.514,0-10,4.486-10,10     c0,5.454,4.388,9.902,9.819,9.999c0.098-0.003,0.196-0.004,0.295-0.004c5.357,0,9.762,4.221,9.991,9.573     C148.513,316.885,194.588,361,251,361c57.897,0,105-47.103,105-105c0-5.523,4.478-10,10-10s10,4.477,10,10     C376,324.925,319.925,381,251,381z M230.569,152.809c-4.75,0-8.964-3.397-9.832-8.238c-0.974-5.436,2.643-10.633,8.08-11.607     C236.09,131.661,243.553,131,251,131c5.523,0,10,4.477,10,10s-4.477,10-10,10c-6.268,0-12.544,0.555-18.655,1.65     C231.749,152.757,231.155,152.809,230.569,152.809z"/></g><g><path d="M251,381c-32.443,0-63.19-12.374-86.579-34.844c-23.318-22.4-36.919-52.494-38.297-84.735     c-0.116-2.714,0.877-5.358,2.75-7.325c1.874-1.967,4.467-3.086,7.184-3.102C141.54,250.963,146,246.479,146,241     c0-4.502-3.042-8.465-7.396-9.636c-2.628-0.707-4.854-2.454-6.165-4.838c-1.311-2.384-1.594-5.2-0.784-7.797     c7.767-24.892,23.603-47.238,44.593-62.922C197.966,139.578,223.815,131,251,131c5.523,0,10,4.477,10,10s-4.477,10-10,10     c-43.371,0-81.521,26.077-97.417,65.715C161.202,222.239,166,231.193,166,241c0,12.704-7.987,23.625-19.203,27.979     C153.179,321.217,197.429,361,251,361c37.552,0,72.489-20.266,91.178-52.888c2.743-4.792,8.854-6.453,13.647-3.706     c4.792,2.745,6.451,8.855,3.706,13.647C337.289,356.881,295.702,381,251,381z M365.604,275.736c-0.279,0-0.561-0.012-0.845-0.036     c-5.504-0.46-9.592-5.295-9.131-10.799c0.246-2.945,0.371-5.939,0.371-8.901c0-5.523,4.478-10,10-10s10,4.477,10,10     c0,3.516-0.148,7.072-0.441,10.569C375.122,271.789,370.75,275.736,365.604,275.736z"/></g><g><path d="M251,331c-5.523,0-10-4.478-10-10s4.477-10,10-10c30.327,0,55-24.673,55-55s-24.673-55-55-55s-55,24.673-55,55     c0,5.522-4.477,10-10,10s-10-4.478-10-10c0-41.355,33.645-75,75-75c41.355,0,75,33.645,75,75C326,297.355,292.355,331,251,331z"/></g><g><path d="M251,331c-5.523,0-10-4.478-10-10s4.477-10,10-10c30.327,0,55-24.673,55-55s-24.673-55-55-55s-55,24.673-55,55     c0,5.522-4.477,10-10,10s-10-4.478-10-10c0-41.355,33.645-75,75-75c41.355,0,75,33.645,75,75C326,297.355,292.355,331,251,331z"/></g><g><path d="M266,121c-16.394,0-29.799-13.274-29.993-29.64C236.002,91.237,236,91.114,236,91c0-16.542,13.458-30,30-30     s30,13.458,30,30c0,1.783-0.174,3.625-0.517,5.477C292.854,110.686,280.455,121,266,121z M256.001,90.823     c0.002,0.073,0.003,0.146,0.003,0.219C256.027,96.533,260.511,101,266,101c4.813,0,8.942-3.433,9.817-8.163     C275.94,92.172,276,91.572,276,91c0-5.514-4.486-10-10-10C260.545,81,256.096,85.39,256.001,90.823z"/></g><g><path d="M306,441c-13.125,0-24.614-8.402-28.589-20.908C276.475,417.147,276,414.088,276,411c0-16.542,13.458-30,30-30     c12.414,0,23.371,7.476,27.914,19.046C335.298,403.566,336,407.254,336,411C336,427.542,322.542,441,306,441z M306,401     c-5.514,0-10,4.486-10,10c0,1.029,0.158,2.049,0.471,3.032C297.796,418.2,301.625,421,306,421c5.514,0,10-4.486,10-10     c0-1.232-0.236-2.458-0.701-3.642C313.781,403.494,310.132,401,306,401z"/></g><g><path d="M136,271c-16.542,0-30-13.458-30-30s13.458-30,30-30c2.586,0,5.211,0.354,7.801,1.051     C156.871,215.567,166,227.472,166,241c0,16.364-13.249,29.768-29.585,29.991C136.277,270.997,136.139,271,136,271z M136,231     c-5.514,0-10,4.486-10,10c0,5.458,4.394,9.908,9.831,9.999c0.098-0.003,0.195-0.004,0.284-0.004     C141.54,250.963,146,246.479,146,241c0-4.502-3.042-8.465-7.397-9.636C137.694,231.119,136.843,231,136,231z"/></g><g><path d="M456,341c-1.611,0-3.248-0.144-5.004-0.44C436.513,338.119,426,325.688,426,311c0-16.542,13.458-30,30-30     c3.535,0,7.04,0.635,10.416,1.887C478.129,287.227,486,298.525,486,311C486,327.542,472.542,341,456,341z M456,301     c-5.514,0-10,4.486-10,10c0,4.889,3.499,9.025,8.321,9.838c0.646,0.109,1.194,0.162,1.679,0.162c5.514,0,10-4.486,10-10     c0-4.15-2.626-7.912-6.535-9.36C458.319,301.215,457.154,301,456,301z"/></g><g><path d="M251,281c-13.785,0-25-11.215-25-25s11.215-25,25-25s25,11.215,25,25S264.785,281,251,281z M251,251     c-2.757,0-5,2.243-5,5s2.243,5,5,5s5-2.243,5-5S253.757,251,251,251z"/></g></g></g><text x="0" y="527" fill="#000000" font-size="5px" font-weight="bold" font-family="'Helvetica Neue', Helvetica, Arial-Unicode, Arial, Sans-serif">Created by Flatart</text><text x="0" y="532" fill="#000000" font-size="5px" font-weight="bold" font-family="'Helvetica Neue', Helvetica, Arial-Unicode, Arial, Sans-serif">from the Noun Project</text></svg>