<svg xmlns="http://www.w3.org/2000/svg" width="115.75" height="123.467" viewBox="0 0 115.75 123.467"><g fill="#233e56"><path d="M10.121 110.048h29.215c1.24 0 2.246-1.008 2.246-2.248v-92.135c0-1.241-1.006-2.246-2.246-2.246h-29.215c-1.242 0-2.246 1.005-2.246 2.246v92.135c0 1.24 1.003 2.248 2.246 2.248zm16.966-48.315l10-31.573v63.146l-10-31.573zm9.213 43.822h-23.146l11.574-36.405 11.572 36.405zm-11.572-51.238l-11.574-36.405h23.146l-11.572 36.405zm-2.359 7.416l-10 31.572v-63.145l10 31.573zM105.626 56.114h-51.685c-1.24 0-2.248 1.008-2.248 2.248v49.438c0 1.24 1.008 2.248 2.248 2.248h51.686c1.24 0 2.248-1.008 2.248-2.248v-49.438c0-1.24-1.008-2.248-2.249-2.248zm-29.101 26.967l-20.336 19.439v-38.877l20.336 19.438zm-16.965-22.472h40.449l-20.224 19.328-20.225-19.328zm20.225 25.619l20.225 19.327h-40.45l20.225-19.327zm3.257-3.147l20.336-19.438v38.878l-20.336-19.44zM105.626 13.419h-51.685c-1.24 0-2.248 1.005-2.248 2.246v26.967c0 1.242 1.008 2.246 2.248 2.246h51.686c1.24 0 2.248-1.004 2.248-2.246v-26.967c0-1.241-1.008-2.246-2.249-2.246zm-30.673 15.73l-18.764 9.774v-19.55l18.764 9.776zm-11.797-11.237h33.258l-16.629 8.652-16.629-8.652zm16.629 13.821l16.629 8.651h-33.258l16.629-8.651zm4.83-2.584l18.764-9.776v19.551l-18.764-9.775z"/></g></svg>